<?xml version="1.0" standalone="no"?>
<!DOCTYPE svg PUBLIC "-//W3C//DTD SVG 20010904//EN"
 "http://www.w3.org/TR/2001/REC-SVG-20010904/DTD/svg10.dtd">
<svg version="1.0" xmlns="http://www.w3.org/2000/svg"
 width="512.000000pt" height="512.000000pt" viewBox="0 0 512.000000 512.000000"
 preserveAspectRatio="xMidYMid meet">
<metadata>
Created by potrace 1.14, written by Peter Selinger 2001-2017
</metadata>
<g transform="translate(0.000000,512.000000) scale(0.100000,-0.100000)"
fill="#000000" stroke="none">
<path d="M2300 5051 c-52 -37 -95 -74 -94 -82 1 -8 33 -60 73 -117 39 -57 71
-105 71 -107 0 -2 -17 -5 -130 -21 -150 -22 -356 -81 -516 -150 -658 -279
-1148 -884 -1284 -1584 -44 -223 -50 -510 -15 -755 27 -196 130 -511 218 -668
15 -26 39 -68 54 -94 122 -221 339 -467 558 -634 266 -204 611 -357 930 -413
50 -8 106 -18 125 -22 70 -12 435 -12 530 1 653 86 1213 435 1565 975 185 283
311 631 342 946 10 98 10 410 0 484 -4 30 -10 78 -13 105 -4 28 -21 109 -39
180 -97 388 -295 738 -579 1020 -82 81 -245 219 -252 213 -1 -2 -5 -25 -8 -52
-3 -27 -11 -53 -18 -58 -7 -4 -28 -18 -46 -29 -18 -12 -32 -25 -30 -29 2 -4
37 -35 78 -68 114 -92 241 -228 336 -357 184 -251 306 -542 358 -858 21 -124
27 -377 12 -520 -29 -293 -152 -630 -321 -882 -37 -55 -70 -102 -74 -105 -3
-3 -22 -26 -41 -52 -94 -127 -355 -352 -518 -447 -325 -189 -633 -274 -1002
-275 -126 -1 -191 3 -300 18 -91 12 -217 42 -322 77 -743 242 -1274 902 -1357
1684 -9 88 -7 344 3 415 4 25 9 63 12 85 30 223 140 520 272 732 158 256 389
487 645 645 218 136 507 242 742 273 22 3 55 8 74 11 l33 5 -66 -126 c-36 -70
-64 -130 -61 -135 3 -4 37 -25 77 -45 40 -21 88 -46 106 -57 19 -10 36 -18 37
-16 2 2 47 86 101 188 54 102 101 187 104 190 4 3 17 26 29 51 23 46 23 47 6
99 -9 28 -23 54 -30 56 -7 3 -47 56 -88 117 -123 181 -173 251 -183 253 -5 2
-52 -28 -104 -65z"/>
<path d="M1560 3890 c0 -3 -8 -6 -17 -7 -44 -3 -63 -8 -63 -16 0 -4 -4 -5 -10
-2 -5 3 -10 1 -10 -6 0 -7 -3 -9 -7 -6 -3 4 -15 0 -25 -10 -10 -9 -18 -13 -18
-10 0 4 -17 -11 -37 -33 -54 -57 -65 -70 -57 -70 3 0 1 -6 -5 -13 -6 -8 -8
-17 -4 -20 3 -4 -2 -10 -11 -13 -14 -5 -15 -9 -4 -15 9 -6 9 -9 1 -9 -6 0 -10
-9 -8 -20 2 -11 1 -20 -4 -20 -4 0 -7 -11 -7 -25 0 -14 5 -25 11 -25 7 0 7 -3
0 -8 -14 -9 -14 -85 0 -94 7 -5 7 -8 0 -8 -14 0 -14 -50 0 -50 7 0 7 -3 0 -8
-6 -4 -11 -16 -11 -27 0 -11 5 -23 11 -27 7 -5 7 -8 0 -8 -14 0 -14 -50 0 -50
7 0 7 -3 0 -8 -6 -4 -11 -16 -11 -27 0 -11 5 -23 11 -27 7 -5 7 -8 0 -8 -14 0
-14 -50 0 -50 7 0 7 -3 0 -8 -6 -4 -11 -16 -11 -27 0 -11 5 -23 11 -27 7 -5 7
-8 0 -8 -6 0 -11 -11 -11 -25 0 -14 4 -25 8 -25 5 0 4 -9 -2 -19 -7 -14 -7
-22 0 -26 8 -5 7 -11 -1 -21 -9 -11 -9 -14 1 -14 8 0 11 -3 8 -6 -10 -9 23
-97 43 -120 11 -11 16 -24 12 -27 -3 -4 -2 -7 3 -7 6 0 19 -8 30 -18 30 -28
84 -64 84 -56 0 3 7 1 15 -6 8 -7 15 -9 15 -5 0 4 6 3 13 -3 16 -13 167 -22
167 -10 0 5 6 6 13 1 6 -4 20 -6 30 -5 10 2 24 -2 32 -8 10 -8 15 -8 21 1 5 8
3 9 -6 4 -9 -5 -11 -4 -6 4 4 6 12 8 18 5 6 -4 36 -7 67 -6 31 0 62 -5 70 -11
12 -10 13 -9 7 2 -7 10 0 12 33 7 25 -3 41 -1 41 5 0 6 6 7 13 2 6 -4 20 -6
30 -5 10 2 24 -2 32 -8 10 -8 15 -8 21 1 5 8 3 9 -6 4 -8 -5 -11 -4 -6 3 4 6
14 8 23 5 23 -9 66 -8 81 1 7 4 12 2 12 -6 0 -8 3 -9 8 -3 6 9 23 14 60 17 6
1 12 5 12 10 0 5 5 6 10 3 6 -3 10 -1 10 4 0 6 6 11 14 11 17 0 103 86 111
111 4 10 10 19 14 19 4 0 7 10 8 22 1 11 6 24 10 27 4 3 8 24 8 46 0 22 4 46
9 53 5 7 4 12 -3 12 -8 0 -9 5 -2 17 5 10 5 26 1 39 -6 15 -5 24 3 28 9 3 9 5
-1 5 -10 1 -10 6 -2 21 6 11 7 20 3 20 -10 0 -10 41 1 58 4 7 2 12 -4 12 -7 0
-8 6 0 19 7 14 7 22 0 26 -8 5 -7 11 1 21 9 11 9 14 0 14 -9 0 -9 5 0 22 9 16
9 23 1 26 -9 3 -9 9 -2 23 6 10 7 19 3 19 -12 0 -10 64 2 72 6 5 5 8 -4 8 -11
0 -11 3 -1 15 9 11 9 15 1 15 -8 0 -9 6 -3 18 5 9 6 26 2 37 -4 11 -3 26 2 33
7 8 7 12 -1 12 -7 0 -11 6 -10 13 4 18 -23 97 -33 97 -4 0 -8 6 -8 13 -1 28
-106 118 -144 122 -36 4 -37 5 -32 13 3 5 -5 8 -17 7 -12 -1 -37 2 -55 6 -17
4 -35 3 -38 -2 -3 -5 -15 -4 -27 3 -26 14 -27 14 -38 -4 -5 -7 -9 -8 -9 -3 0
10 -157 12 -167 1 -3 -3 -13 -1 -22 3 -25 14 -33 14 -42 -1 -5 -7 -9 -8 -9 -3
0 8 -148 12 -170 4 -3 -1 -9 0 -15 1 -25 5 -65 6 -65 0z m622 -223 c43 -11 84
-109 54 -129 -8 -6 -8 -8 0 -8 13 0 13 -67 1 -87 -4 -6 -4 -14 1 -17 10 -6 9
-92 0 -102 -4 -4 -4 -12 -1 -18 11 -16 11 -176 0 -176 -4 0 -5 -6 0 -12 12
-20 13 -68 1 -68 -7 0 -7 -5 -1 -12 15 -21 2 -61 -31 -93 -16 -15 -34 -20 -78
-20 -32 1 -58 -3 -58 -8 0 -6 -5 -6 -12 -1 -16 11 -39 11 -55 1 -7 -5 -13 -4
-13 1 0 10 -100 9 -117 -1 -7 -4 -15 -2 -19 4 -4 8 -9 7 -15 -2 -5 -9 -9 -9
-9 -3 0 10 -42 12 -75 4 -5 -1 -12 -1 -15 0 -19 7 -70 7 -70 -1 0 -6 -5 -7
-12 -3 -6 4 -34 8 -61 9 -40 2 -54 8 -80 34 -18 17 -26 31 -18 31 10 0 11 3 3
13 -6 7 -10 34 -8 60 1 27 -1 50 -6 53 -5 3 -5 11 -1 17 10 14 9 94 0 104 -4
3 -3 11 1 17 10 16 9 30 -3 38 -6 5 -6 8 3 8 6 0 12 7 12 16 0 9 -5 12 -12 8
-7 -5 -8 -3 -2 7 11 18 12 31 2 45 -5 7 -2 14 8 18 12 4 13 10 6 19 -6 6 -9
31 -8 55 1 24 -1 45 -6 48 -5 3 -5 11 -1 17 4 7 8 23 9 37 5 57 33 96 76 102
44 6 583 1 610 -5z"/>
<path d="M1801 3461 c-1 -8 -4 -11 -7 -8 -13 13 -78 -39 -79 -63 0 -3 -4 -11
-8 -17 -5 -8 -3 -13 5 -13 8 0 9 -3 2 -8 -14 -10 -10 -123 6 -153 17 -31 36
-50 44 -42 3 4 6 1 6 -6 0 -7 5 -9 10 -6 6 3 10 2 10 -2 0 -11 122 -9 140 2 9
5 11 4 6 -3 -12 -20 7 -13 46 17 21 15 35 31 31 35 -3 3 -1 6 5 6 8 0 10 32 9
101 -2 91 -4 103 -24 119 -12 9 -19 20 -16 24 4 3 -4 6 -16 6 -14 0 -20 4 -15
11 4 8 0 8 -15 0 -15 -8 -21 -9 -21 -1 0 6 -5 8 -12 3 -19 -11 -38 -13 -38 -3
0 5 -13 5 -29 0 -21 -6 -31 -5 -35 3 -3 8 -5 7 -5 -2z"/>
<path d="M2986 3892 c-3 -3 -20 -7 -38 -9 -18 -2 -40 -5 -48 -6 -25 -3 -110
-48 -110 -57 0 -5 -9 -12 -20 -15 -11 -3 -20 -13 -20 -20 0 -8 -8 -19 -17 -24
-10 -6 -14 -11 -10 -11 4 0 -3 -16 -17 -36 -13 -20 -23 -45 -21 -55 2 -11 1
-19 -4 -19 -4 0 -8 -120 -9 -267 -1 -148 -2 -272 -3 -278 0 -5 2 -23 6 -38 4
-22 3 -27 -7 -21 -10 6 -10 5 -2 -7 6 -8 10 -24 8 -36 -2 -13 1 -23 7 -23 5 0
8 -4 4 -9 -15 -26 71 -180 102 -181 7 0 16 -6 20 -13 6 -11 60 -38 83 -43 3 0
12 -4 20 -7 25 -11 160 -15 160 -5 0 5 6 6 13 1 6 -4 20 -6 30 -5 10 2 26 -2
35 -10 10 -8 13 -8 9 -1 -4 6 -3 14 3 18 5 3 10 2 10 -3 0 -4 19 -7 41 -5 24
2 49 -2 57 -9 11 -9 14 -9 9 -1 -4 6 -3 14 3 18 5 3 10 3 10 -2 0 -10 113 -9
130 2 8 5 11 4 7 -1 -8 -13 116 -12 125 1 5 6 8 5 8 -4 0 -10 3 -11 13 -2 8 6
17 8 20 4 4 -3 14 0 24 8 11 10 14 10 9 1 -9 -14 65 17 76 33 4 6 8 7 8 2 0
-4 14 5 31 20 38 34 100 111 79 98 -12 -6 -11 -4 2 11 9 10 20 44 26 74 9 53
9 660 -1 690 -7 25 -18 54 -30 79 -14 28 -97 120 -97 107 0 -5 -7 -3 -15 4
-24 20 -85 49 -78 36 4 -6 -1 -5 -10 3 -9 7 -17 11 -17 7 0 -3 -11 -1 -25 4
-15 6 -26 6 -30 -1 -4 -5 -10 -7 -15 -4 -8 5 -125 9 -145 5 -5 -1 -14 -2 -18
-1 -14 2 -131 3 -142 1 -5 -1 -14 -2 -18 -1 -27 5 -138 4 -142 -1 -3 -3 -21
-2 -40 2 -19 4 -36 5 -39 2z m589 -226 c11 -2 22 -5 25 -5 10 -2 33 -46 37
-71 7 -50 8 -90 2 -90 -10 0 -5 -44 6 -52 6 -5 5 -8 -3 -8 -8 0 -10 -5 -6 -12
11 -18 12 -48 2 -48 -5 0 -4 -9 2 -20 6 -11 7 -20 2 -20 -12 0 -9 -43 3 -52 6
-5 5 -8 -3 -8 -8 0 -10 -5 -6 -12 10 -16 13 -48 4 -48 -8 0 -6 -37 3 -46 3 -4
2 -15 -4 -25 -7 -13 -6 -19 1 -19 7 0 8 -6 0 -19 -6 -13 -7 -22 0 -26 6 -4 6
-15 0 -30 -5 -14 -6 -25 -1 -25 4 0 3 -16 -3 -35 -6 -19 -17 -35 -24 -35 -7 0
-10 -5 -7 -10 9 -14 -33 -28 -75 -25 -19 1 -43 -2 -52 -6 -10 -6 -19 -5 -24 2
-4 8 -9 7 -15 -2 -5 -9 -9 -9 -9 -3 0 10 -42 12 -75 4 -5 -1 -12 -1 -15 0 -19
7 -70 7 -70 -1 0 -6 -6 -7 -12 -2 -17 10 -40 10 -55 -1 -8 -5 -13 -4 -13 2 0
11 -60 10 -78 -2 -6 -3 -13 -2 -16 2 -6 10 -46 10 -63 -1 -6 -4 -14 -3 -17 1
-3 5 -15 8 -28 7 -28 -3 -78 25 -78 43 0 7 -4 11 -9 8 -5 -3 -11 12 -13 34 -2
22 0 40 5 40 4 0 3 9 -3 20 -7 13 -7 20 -1 20 7 0 7 9 1 25 -7 18 -6 25 2 25
8 0 8 3 3 9 -6 6 -8 85 -5 196 3 103 3 189 1 191 -3 3 -5 19 -5 37 -1 33 48
102 65 91 5 -3 9 -2 9 3 0 8 580 8 615 -1z"/>
<path d="M3210 3461 c-8 -4 -22 -7 -30 -6 -18 1 -41 -20 -62 -55 -11 -18 -15
-50 -14 -112 2 -84 3 -88 34 -118 18 -17 37 -28 42 -25 6 3 10 2 10 -2 0 -13
163 -8 168 5 2 6 10 8 19 5 11 -4 14 -2 9 5 -4 7 -3 12 3 12 22 0 35 48 37
133 0 48 -3 87 -7 87 -5 0 -9 5 -9 11 0 16 -52 59 -63 52 -5 -3 -13 0 -17 7
-6 9 -12 9 -29 1 -16 -9 -21 -9 -21 0 0 8 -4 8 -12 1 -18 -14 -30 -15 -37 -4
-3 6 -13 7 -21 3z"/>
<path d="M1545 2490 c-4 -6 -10 -8 -15 -5 -5 3 -21 0 -37 -7 -15 -6 -30 -12
-33 -12 -11 -3 -94 -56 -87 -56 4 0 -7 -14 -25 -32 -18 -18 -33 -35 -32 -38 2
-14 -9 -40 -18 -40 -5 0 -6 -4 -3 -10 3 -5 2 -10 -4 -10 -6 0 -8 -6 -5 -14 3
-8 1 -24 -6 -35 -8 -16 -8 -21 2 -21 8 0 9 -3 3 -8 -6 -4 -11 -16 -11 -27 0
-11 5 -23 11 -27 7 -5 7 -8 0 -8 -14 0 -14 -50 0 -50 7 0 7 -3 0 -8 -6 -4 -11
-16 -11 -27 0 -11 5 -23 11 -27 7 -5 7 -8 0 -8 -14 0 -14 -50 0 -50 7 0 7 -3
0 -8 -6 -4 -11 -16 -11 -27 0 -11 5 -23 11 -27 7 -5 7 -8 0 -8 -14 0 -14 -50
0 -50 7 0 7 -3 0 -8 -6 -4 -11 -16 -11 -27 0 -11 5 -23 11 -27 7 -5 7 -8 0 -8
-14 0 -14 -50 0 -50 7 0 7 -3 0 -8 -14 -9 -14 -45 0 -54 7 -5 7 -8 0 -8 -6 0
-11 -11 -11 -25 0 -14 4 -25 9 -25 5 0 4 -7 -3 -15 -7 -8 -8 -15 -3 -15 5 0
10 -6 11 -12 4 -43 11 -69 22 -83 7 -8 10 -15 6 -15 -6 0 5 -14 50 -62 29 -31
64 -59 64 -51 0 3 9 -2 20 -12 11 -10 30 -20 43 -21 38 -6 52 -9 65 -17 6 -5
12 -5 12 0 0 9 103 8 119 -1 6 -4 11 -4 11 1 0 4 23 8 50 8 39 0 49 -3 45 -14
-5 -11 -3 -12 10 -1 16 13 105 18 124 6 6 -4 11 -4 11 1 0 4 23 8 50 8 39 0
49 -3 45 -14 -5 -11 -3 -12 10 -1 16 13 105 18 124 6 6 -4 11 -3 11 3 0 5 9 8
20 6 11 -2 20 0 20 4 0 4 7 8 15 8 23 0 95 35 95 46 0 6 3 8 6 4 18 -17 113
133 114 178 0 12 5 26 12 33 9 9 9 12 0 12 -9 0 -10 5 -3 17 5 10 5 26 1 39
-6 15 -5 24 3 28 9 3 9 5 -1 5 -10 1 -10 6 -2 21 6 11 7 20 3 20 -10 0 -10 41
1 58 4 7 2 12 -4 12 -7 0 -8 6 0 19 7 14 7 22 0 26 -8 5 -7 11 1 21 9 11 9 14
0 14 -9 0 -9 5 0 22 9 16 9 23 1 26 -9 3 -9 9 -2 23 6 10 7 19 3 19 -12 0 -10
64 2 72 6 5 5 8 -4 8 -11 0 -11 3 -1 15 9 11 9 15 1 15 -8 0 -9 6 -3 18 5 9 6
26 2 37 -4 11 -3 28 2 38 6 12 5 17 -4 17 -9 0 -9 3 2 10 8 5 10 10 5 10 -6 0
-12 15 -13 33 -3 35 -26 92 -42 102 -6 4 -9 9 -7 13 2 4 -17 27 -42 52 -25 25
-42 38 -37 30 6 -11 4 -11 -6 1 -11 13 -77 42 -100 44 -3 0 -10 3 -14 7 -4 4
-13 3 -21 -3 -7 -6 -13 -8 -13 -3 0 12 -581 11 -599 0 -10 -6 -12 -5 -7 2 4 7
3 12 -3 12 -5 0 -13 -5 -16 -10z m160 -214 c16 3 31 7 34 9 2 2 12 0 22 -6 14
-7 19 -6 19 3 0 9 3 10 8 2 7 -11 82 -11 101 0 5 4 12 2 15 -2 6 -10 48 -8 65
2 5 4 12 2 16 -4 6 -9 63 -5 74 5 2 2 12 0 22 -6 14 -7 19 -6 19 3 0 8 3 9 8
3 4 -6 24 -11 44 -11 20 0 45 -7 54 -15 24 -20 49 -82 35 -87 -6 -2 -8 -9 -4
-15 11 -19 12 -67 2 -67 -6 0 -7 -6 -2 -12 11 -19 13 -68 2 -68 -6 0 -7 -6 -2
-12 11 -19 13 -68 2 -68 -6 0 -7 -4 -4 -10 12 -19 14 -53 5 -70 -5 -10 -6 -20
-2 -24 11 -12 9 -76 -2 -76 -8 0 -8 -3 -1 -8 6 -4 11 -20 11 -37 0 -16 -5 -33
-11 -37 -7 -5 -6 -8 1 -8 6 0 10 -10 9 -22 -1 -13 -3 -30 -4 -39 -1 -21 -51
-70 -62 -63 -5 3 -9 2 -9 -3 0 -4 -137 -8 -304 -7 -297 1 -304 1 -335 23 -17
12 -29 27 -26 32 4 5 2 9 -3 9 -6 0 -9 21 -8 48 1 26 -2 52 -6 58 -5 7 -2 14
8 18 13 5 14 9 4 21 -7 8 -10 24 -7 35 3 11 1 23 -4 26 -6 4 -6 10 0 17 14 18
14 29 -1 38 -10 7 -10 9 0 9 6 0 12 7 12 16 0 9 -5 12 -12 8 -7 -5 -8 -3 -2 7
10 18 12 99 2 106 -5 2 -5 9 -1 16 3 6 7 54 7 106 1 79 5 101 21 123 21 28 24
29 88 33 20 1 40 5 44 8 3 4 11 3 18 -3 6 -5 24 -7 40 -4z"/>
<path d="M1794 2058 c-3 -4 -12 -4 -21 -1 -10 4 -14 2 -10 -4 4 -5 -5 -15 -18
-21 -14 -7 -25 -18 -25 -27 0 -8 -3 -15 -8 -15 -11 0 -5 -159 8 -190 11 -27
62 -64 74 -53 3 3 6 1 6 -6 0 -7 5 -9 12 -5 19 12 58 14 58 3 0 -6 6 -7 12 -3
17 11 48 12 48 3 0 -4 18 2 40 14 23 13 40 29 40 40 0 9 5 17 10 17 14 0 13
166 -2 193 -11 21 -44 50 -60 53 -5 1 -9 3 -10 4 -7 6 -150 4 -154 -2z"/>
<path d="M2830 2493 c-49 -13 -99 -36 -95 -43 3 -4 -2 -10 -10 -13 -7 -3 -22
-21 -32 -39 -14 -28 -18 -64 -20 -223 -3 -217 -3 -196 0 -255 3 -49 32 -119
54 -127 7 -3 10 -10 6 -17 -3 -6 -3 -8 2 -4 4 4 15 2 23 -4 15 -13 33 -18 67
-21 11 -1 23 -6 27 -12 5 -6 8 -5 8 4 0 10 3 11 13 2 8 -6 17 -8 20 -4 12 11
57 12 57 0 0 -8 3 -8 11 0 7 7 21 8 39 3 16 -5 31 -5 35 -2 10 10 49 8 57 -3
5 -6 8 -4 8 5 0 13 1 13 10 0 5 -8 10 -10 10 -5 0 9 76 12 85 3 9 -9 10 -108
2 -108 -5 0 -4 -7 3 -15 9 -11 9 -15 1 -15 -7 0 -9 -5 -6 -11 9 -14 12 -79 4
-79 -9 0 2 -49 13 -56 5 -3 4 -12 -3 -20 -8 -10 -8 -14 0 -14 6 0 11 -5 11
-10 0 -13 60 -80 69 -78 13 4 51 -14 51 -23 0 -6 6 -7 12 -2 17 10 49 10 71 0
10 -4 17 -4 17 2 0 6 11 6 30 1 21 -6 30 -5 30 3 0 7 4 6 10 -3 6 -9 10 -10
10 -3 0 8 9 9 30 3 21 -6 30 -5 30 3 0 7 4 6 10 -3 6 -9 10 -10 10 -3 0 8 9 9
30 3 17 -5 30 -5 30 0 0 9 19 8 37 -3 6 -4 15 -2 19 4 5 8 3 9 -6 4 -9 -5 -11
-4 -6 4 4 6 11 9 16 6 5 -3 19 -1 31 6 22 11 83 69 73 69 -2 0 1 10 8 23 14
25 19 395 6 403 -5 3 -6 9 -4 13 3 4 -5 19 -17 32 -12 13 -22 26 -21 29 0 3
-10 13 -23 23 -13 10 -23 15 -23 10 0 -4 -4 -2 -8 5 -5 7 -25 13 -45 14 -20 1
-37 6 -37 12 0 7 -3 7 -8 1 -10 -14 -112 -15 -112 -1 0 7 -3 7 -8 1 -4 -5 -14
-10 -22 -10 -8 0 -18 5 -22 10 -5 6 -8 6 -8 -1 0 -18 -60 -12 -61 6 -5 58 -4
92 3 96 5 3 5 11 1 17 -4 6 -8 72 -8 147 -2 135 -8 166 -43 206 -32 37 -142
77 -142 52 0 -8 -3 -9 -8 -3 -9 13 -82 16 -82 4 0 -6 -6 -7 -12 -2 -17 10
-228 10 -228 0 0 -4 -6 -5 -12 0 -15 9 -46 11 -68 6z m150 -210 c0 8 3 9 8 1
7 -11 82 -11 101 0 5 4 12 2 16 -3 5 -9 32 -9 70 -1 6 1 15 2 21 1 15 -1 24
-61 10 -61 -7 0 -7 -3 -1 -8 6 -4 10 -20 10 -37 0 -16 -4 -33 -10 -37 -7 -5
-7 -8 0 -8 6 0 10 -16 10 -35 0 -19 -4 -35 -10 -35 -7 0 -7 -3 0 -8 18 -13 11
-66 -10 -82 -23 -17 -123 -21 -144 -6 -11 8 -13 8 -7 -1 4 -7 2 -13 -3 -13 -6
0 -11 6 -11 13 0 7 -3 8 -8 2 -11 -15 -74 -17 -65 -2 5 9 3 9 -8 2 -24 -17
-51 -11 -60 13 -5 14 -5 22 2 22 6 0 7 5 3 11 -11 18 -10 89 1 89 6 0 3 5 -5
10 -11 7 -11 10 -2 10 7 0 10 5 6 11 -8 14 -8 124 1 138 3 6 10 9 15 6 5 -3
11 -1 15 4 4 7 15 7 30 1 18 -7 25 -6 25 3z m490 -544 c0 -8 4 -8 13 -1 8 7
18 7 27 2 8 -5 19 -6 24 -2 18 11 56 11 56 0 0 -7 4 -7 13 0 17 14 42 -2 34
-22 -4 -9 -1 -16 5 -16 7 0 7 -4 -1 -13 -6 -8 -8 -17 -4 -21 9 -9 11 -46 3
-46 -8 0 -6 -37 2 -45 3 -3 3 -17 0 -30 -4 -21 -7 -23 -24 -14 -11 6 -18 7
-15 2 4 -7 -36 -8 -158 -4 -19 1 -20 8 -20 99 -1 75 3 100 15 109 19 16 30 16
30 2z"/>
</g>
</svg>
